<svg width="77" height="43" viewBox="0 0 77 43" fill="none" xmlns="http://www.w3.org/2000/svg">
<path d="M52.56 15.42C53.36 15.42 54.06 15.58 54.66 15.9C55.2733 16.22 55.7467 16.66 56.08 17.22C56.4133 17.7667 56.58 18.3867 56.58 19.08C56.58 19.8933 56.3933 20.6733 56.02 21.42C55.66 22.1667 55.1 22.9733 54.34 23.84C53.58 24.7067 52.4267 25.9133 50.88 27.46H56.9L56.68 29H48.78V27.54C50.5667 25.6867 51.8333 24.3333 52.58 23.48C53.3267 22.6133 53.86 21.86 54.18 21.22C54.5 20.58 54.66 19.8933 54.66 19.16C54.66 18.4667 54.46 17.9267 54.06 17.54C53.66 17.14 53.1267 16.94 52.46 16.94C51.9133 16.94 51.4333 17.0533 51.02 17.28C50.6067 17.5067 50.1667 17.88 49.7 18.4L48.5 17.44C49.0467 16.76 49.6533 16.2533 50.32 15.92C50.9867 15.5867 51.7333 15.42 52.56 15.42Z" fill="black"/>
<path d="M31 11.618L33.2186 18.4463L33.3309 18.7918H33.6942H40.8738L35.0654 23.0119L34.7715 23.2254L34.8837 23.5709L37.1024 30.3992L31.2939 26.1791L31 25.9656L30.7061 26.1791L24.8976 30.3992L27.1163 23.5709L27.2285 23.2254L26.9346 23.0119L21.1262 18.7918H28.3058H28.6691L28.7814 18.4463L31 11.618Z" fill="#087DBF" stroke="#087DBF"/>
<rect x="0.5" y="0.5" width="76" height="42" rx="21" stroke="#087DBF"/>
</svg>
