<svg width="77" height="43" viewBox="0 0 77 43" fill="none" xmlns="http://www.w3.org/2000/svg">
<path d="M52.5 15.42C53.3267 15.42 54.0333 15.5733 54.62 15.88C55.22 16.1867 55.6733 16.6 55.98 17.12C56.3 17.64 56.46 18.2067 56.46 18.82C56.46 19.6333 56.22 20.3067 55.74 20.84C55.2733 21.36 54.6467 21.7133 53.86 21.9C54.7533 21.98 55.48 22.3 56.04 22.86C56.6 23.42 56.88 24.18 56.88 25.14C56.88 25.9133 56.6933 26.6133 56.32 27.24C55.9467 27.8667 55.4133 28.36 54.72 28.72C54.0267 29.0667 53.2267 29.24 52.32 29.24C51.5067 29.24 50.76 29.0933 50.08 28.8C49.4 28.4933 48.8067 28.04 48.3 27.44L49.4 26.42C49.84 26.8733 50.2867 27.2067 50.74 27.42C51.2067 27.6333 51.7133 27.74 52.26 27.74C53.1 27.74 53.76 27.5067 54.24 27.04C54.72 26.56 54.96 25.92 54.96 25.12C54.96 24.24 54.7333 23.62 54.28 23.26C53.8267 22.9 53.1667 22.72 52.3 22.72H51.3L51.52 21.3H52.2C52.8933 21.3 53.4667 21.0933 53.92 20.68C54.3867 20.2667 54.62 19.6867 54.62 18.94C54.62 18.3133 54.42 17.82 54.02 17.46C53.62 17.0867 53.08 16.9 52.4 16.9C51.88 16.9 51.4 16.9933 50.96 17.18C50.5333 17.3667 50.0933 17.6733 49.64 18.1L48.68 17C49.8133 15.9467 51.0867 15.42 52.5 15.42Z" fill="black"/>
<path d="M31 11.618L33.2186 18.4463L33.3309 18.7918H33.6942H40.8738L35.0654 23.0119L34.7715 23.2254L34.8837 23.5709L37.1024 30.3992L31.2939 26.1791L31 25.9656L30.7061 26.1791L24.8976 30.3992L27.1163 23.5709L27.2285 23.2254L26.9346 23.0119L21.1262 18.7918H28.3058H28.6691L28.7814 18.4463L31 11.618Z" fill="#087DBF" stroke="#087DBF"/>
<rect x="0.5" y="0.5" width="76" height="42" rx="21" stroke="#087DBF"/>
</svg>
