<svg width="77" height="43" viewBox="0 0 77 43" fill="none" xmlns="http://www.w3.org/2000/svg">
<path d="M58.04 25.7H56.3V29H54.52V25.7H48.8V24.38L52.82 15.42L54.36 16.06L50.74 24.24H54.54L54.7 20.64H56.3V24.24H58.04V25.7Z" fill="black"/>
<path d="M31 11.618L33.2186 18.4463L33.3309 18.7918H33.6942H40.8738L35.0654 23.0119L34.7715 23.2254L34.8837 23.5709L37.1024 30.3992L31.2939 26.1791L31 25.9656L30.7061 26.1791L24.8976 30.3992L27.1163 23.5709L27.2285 23.2254L26.9346 23.0119L21.1262 18.7918H28.3058H28.6691L28.7814 18.4463L31 11.618Z" fill="#087DBF" stroke="#087DBF"/>
<rect x="0.5" y="0.5" width="76" height="42" rx="21" stroke="#087DBF"/>
</svg>
