<svg width="77" height="43" viewBox="0 0 77 43" fill="none" xmlns="http://www.w3.org/2000/svg">
<rect x="0.5" y="0.5" width="76" height="42" rx="21" fill="#087DBF" stroke="#087DBF"/>
<path d="M56.4 17.06H51.18V21C51.86 20.6533 52.5733 20.48 53.32 20.48C54.4667 20.48 55.3867 20.86 56.08 21.62C56.7733 22.3667 57.12 23.4 57.12 24.72C57.12 25.6 56.9267 26.3867 56.54 27.08C56.1533 27.76 55.6067 28.2933 54.9 28.68C54.2067 29.0533 53.4 29.24 52.48 29.24C51.6667 29.24 50.94 29.1 50.3 28.82C49.66 28.5267 49.0667 28.1 48.52 27.54L49.6 26.48C50.0267 26.9067 50.4667 27.2267 50.92 27.44C51.3733 27.64 51.8867 27.74 52.46 27.74C53.3133 27.74 53.98 27.4733 54.46 26.94C54.9533 26.4067 55.2 25.6533 55.2 24.68C55.2 23.7067 54.98 23 54.54 22.56C54.1 22.12 53.5067 21.9 52.76 21.9C52.4133 21.9 52.0933 21.94 51.8 22.02C51.5067 22.0867 51.1933 22.2 50.86 22.36H49.42V15.62H56.66L56.4 17.06Z" fill="white"/>
<path d="M31 11.618L33.2186 18.4463L33.3309 18.7918H33.6942H40.8738L35.0654 23.0119L34.7715 23.2254L34.8837 23.5709L37.1024 30.3992L31.2939 26.1791L31 25.9656L30.7061 26.1791L24.8976 30.3992L27.1163 23.5709L27.2285 23.2254L26.9346 23.0119L21.1262 18.7918H28.3058H28.6691L28.7814 18.4463L31 11.618Z" fill="white" stroke="white"/>
</svg>
