<svg width="77" height="43" viewBox="0 0 77 43" fill="none" xmlns="http://www.w3.org/2000/svg">
<path d="M26 11.618L28.2186 18.4463L28.3309 18.7918H28.6942H35.8738L30.0654 23.0119L29.7715 23.2254L29.8837 23.5709L32.1024 30.3992L26.2939 26.1791L26 25.9656L25.7061 26.1791L19.8976 30.3992L22.1163 23.5709L22.2285 23.2254L21.9346 23.0119L16.1262 18.7918H23.3058H23.6691L23.7814 18.4463L26 11.618Z" fill="#087DBF" stroke="#087DBF"/>
<path d="M49.64 25.232H45.464L44.632 28H43.096L46.632 16.976H48.552L52.072 28H50.472L49.64 25.232ZM49.272 24L47.56 18.24L45.832 24H49.272ZM55.3079 28.192C54.7639 28.192 54.3319 28.032 54.0119 27.712C53.7025 27.3813 53.5479 26.9227 53.5479 26.336V16.176L55.0199 16V26.304C55.0199 26.528 55.0572 26.6987 55.1319 26.816C55.2172 26.9227 55.3559 26.976 55.5479 26.976C55.7505 26.976 55.9319 26.944 56.0919 26.88L56.4759 27.904C56.1239 28.096 55.7345 28.192 55.3079 28.192ZM60.011 28.192C59.467 28.192 59.035 28.032 58.715 27.712C58.4057 27.3813 58.251 26.9227 58.251 26.336V16.176L59.723 16V26.304C59.723 26.528 59.7603 26.6987 59.835 26.816C59.9203 26.9227 60.059 26.976 60.251 26.976C60.4537 26.976 60.635 26.944 60.795 26.88L61.179 27.904C60.827 28.096 60.4377 28.192 60.011 28.192Z" fill="black"/>
<rect x="0.5" y="0.5" width="76" height="42" rx="21" stroke="#087DBF"/>
</svg>
