<svg width="106" height="35" viewBox="0 0 106 35" fill="none" xmlns="http://www.w3.org/2000/svg">
<rect x="0.5" y="0.5" width="105" height="34" rx="9.5" fill="white" stroke="#087DBF"/>
<path d="M21.7614 25V10.4545H26.8466C27.8598 10.4545 28.6955 10.6297 29.3537 10.9801C30.0118 11.3258 30.5019 11.7921 30.8239 12.3793C31.1458 12.9616 31.3068 13.608 31.3068 14.3182C31.3068 14.9432 31.1955 15.4593 30.973 15.8665C30.7552 16.2737 30.4664 16.5956 30.1065 16.8324C29.7514 17.0691 29.3655 17.2443 28.9489 17.358V17.5C29.3939 17.5284 29.8414 17.6847 30.2912 17.9688C30.741 18.2528 31.1174 18.66 31.4205 19.1903C31.7235 19.7206 31.875 20.3693 31.875 21.1364C31.875 21.8655 31.7093 22.5213 31.3778 23.1037C31.0464 23.6861 30.5232 24.1477 29.8082 24.4886C29.0933 24.8295 28.1629 25 27.017 25H21.7614ZM23.5227 23.4375H27.017C28.1676 23.4375 28.9844 23.215 29.4673 22.7699C29.955 22.3201 30.1989 21.7756 30.1989 21.1364C30.1989 20.6439 30.0734 20.1894 29.8224 19.7727C29.5715 19.3513 29.214 19.0152 28.75 18.7642C28.286 18.5085 27.7367 18.3807 27.1023 18.3807H23.5227V23.4375ZM23.5227 16.8466H26.7898C27.3201 16.8466 27.7983 16.7424 28.2244 16.5341C28.6553 16.3258 28.9962 16.0322 29.2472 15.6534C29.5028 15.2746 29.6307 14.8295 29.6307 14.3182C29.6307 13.679 29.4081 13.1368 28.9631 12.6918C28.518 12.242 27.8125 12.017 26.8466 12.017H23.5227V16.8466ZM37.7521 25.2557C37.0608 25.2557 36.4335 25.1255 35.87 24.8651C35.3066 24.5999 34.8591 24.2188 34.5277 23.7216C34.1963 23.2197 34.0305 22.6136 34.0305 21.9034C34.0305 21.2784 34.1536 20.7718 34.3999 20.3835C34.6461 19.9905 34.9751 19.6828 35.3871 19.4602C35.799 19.2377 36.2536 19.072 36.7507 18.9631C37.2526 18.8494 37.7569 18.7595 38.2635 18.6932C38.9264 18.608 39.4638 18.544 39.8757 18.5014C40.2924 18.4541 40.5954 18.3759 40.7848 18.267C40.9789 18.1581 41.076 17.9687 41.076 17.6989V17.642C41.076 16.9413 40.8842 16.3968 40.5007 16.0085C40.1219 15.6203 39.5466 15.4261 38.7749 15.4261C37.9747 15.4261 37.3473 15.6013 36.8928 15.9517C36.4382 16.3021 36.1186 16.6761 35.9339 17.0739L34.343 16.5057C34.6271 15.8428 35.0059 15.3267 35.4794 14.9574C35.9576 14.5833 36.4785 14.3229 37.0419 14.1761C37.6101 14.0246 38.1688 13.9489 38.718 13.9489C39.0684 13.9489 39.4709 13.9915 39.9254 14.0767C40.3847 14.1572 40.8274 14.3253 41.2536 14.581C41.6844 14.8366 42.0419 15.2225 42.326 15.7386C42.6101 16.2547 42.7521 16.946 42.7521 17.8125V25H41.076V23.5227H40.9908C40.8771 23.7595 40.6877 24.0128 40.4226 24.2827C40.1574 24.5526 39.8047 24.7822 39.3643 24.9716C38.924 25.161 38.3866 25.2557 37.7521 25.2557ZM38.0078 23.75C38.6707 23.75 39.2294 23.6198 39.6839 23.3594C40.1432 23.099 40.4889 22.7628 40.7209 22.3509C40.9576 21.9389 41.076 21.5057 41.076 21.0511V19.517C41.005 19.6023 40.8487 19.6804 40.6072 19.7514C40.3705 19.8177 40.0959 19.8769 39.7834 19.929C39.4756 19.9763 39.175 20.0189 38.8814 20.0568C38.5926 20.09 38.3582 20.1184 38.1783 20.142C37.7427 20.1989 37.3355 20.2912 36.9567 20.419C36.5826 20.5421 36.2796 20.7292 36.0476 20.9801C35.8203 21.2263 35.7067 21.5625 35.7067 21.9886C35.7067 22.571 35.9221 23.0114 36.353 23.3097C36.7886 23.6032 37.3402 23.75 38.0078 23.75ZM50.5558 14.0909V15.5114H44.9023V14.0909H50.5558ZM46.5501 11.4773H48.2262V21.875C48.2262 22.3485 48.2949 22.7036 48.4322 22.9403C48.5742 23.1723 48.7541 23.3286 48.9719 23.4091C49.1945 23.4848 49.4289 23.5227 49.6751 23.5227C49.8597 23.5227 50.0112 23.5133 50.1296 23.4943C50.248 23.4706 50.3427 23.4517 50.4137 23.4375L50.7546 24.9432C50.641 24.9858 50.4824 25.0284 50.2788 25.071C50.0752 25.1184 49.8171 25.142 49.5046 25.142C49.0311 25.142 48.5671 25.0402 48.1126 24.8366C47.6628 24.633 47.2887 24.3229 46.9904 23.9062C46.6969 23.4896 46.5501 22.964 46.5501 22.3295V11.4773ZM59.9521 20.5398V14.0909H61.6282V25H59.9521V23.1534H59.8384C59.5827 23.7074 59.185 24.1785 58.6452 24.5668C58.1055 24.9503 57.4237 25.142 56.5998 25.142C55.918 25.142 55.3119 24.9929 54.7816 24.6946C54.2513 24.3916 53.8346 23.937 53.5316 23.331C53.2286 22.7202 53.0771 21.9508 53.0771 21.0227V14.0909H54.7532V20.9091C54.7532 21.7045 54.9757 22.339 55.4208 22.8125C55.8706 23.286 56.4435 23.5227 57.1396 23.5227C57.5562 23.5227 57.98 23.4162 58.4109 23.2031C58.8465 22.9901 59.2111 22.6634 59.5046 22.223C59.8029 21.7827 59.9521 21.2216 59.9521 20.5398ZM64.6982 25V14.0909H66.3175V15.7955H66.4595C66.6868 15.2131 67.0537 14.7609 67.5604 14.4389C68.067 14.1122 68.6754 13.9489 69.3857 13.9489C70.1054 13.9489 70.7043 14.1122 71.1825 14.4389C71.6655 14.7609 72.0419 15.2131 72.3118 15.7955H72.4254C72.7048 15.232 73.1238 14.7846 73.6825 14.4531C74.2412 14.117 74.9112 13.9489 75.6925 13.9489C76.6679 13.9489 77.4657 14.2543 78.0859 14.8651C78.7062 15.4711 79.0163 16.4157 79.0163 17.6989V25H77.3402V17.6989C77.3402 16.8939 77.12 16.3187 76.6797 15.973C76.2393 15.6274 75.7209 15.4545 75.1243 15.4545C74.3572 15.4545 73.763 15.6866 73.3416 16.1506C72.9202 16.6098 72.7095 17.1922 72.7095 17.8977V25H71.005V17.5284C71.005 16.9081 70.8037 16.4086 70.4013 16.0298C69.9988 15.6463 69.4804 15.4545 68.8459 15.4545C68.4103 15.4545 68.0031 15.5705 67.6243 15.8026C67.2502 16.0346 66.9472 16.3565 66.7152 16.7685C66.4879 17.1757 66.3743 17.6468 66.3743 18.1818V25H64.6982ZM82.081 25V14.0909H83.7571V25H82.081ZM82.9332 12.2727C82.6065 12.2727 82.3248 12.1615 82.0881 11.9389C81.8561 11.7164 81.7401 11.4489 81.7401 11.1364C81.7401 10.8239 81.8561 10.5563 82.0881 10.3338C82.3248 10.1113 82.6065 10 82.9332 10C83.2599 10 83.5393 10.1113 83.7713 10.3338C84.008 10.5563 84.1264 10.8239 84.1264 11.1364C84.1264 11.4489 84.008 11.7164 83.7713 11.9389C83.5393 12.1615 83.2599 12.2727 82.9332 12.2727Z" fill="black"/>
</svg>
