<svg width="92" height="45" viewBox="0 0 92 45" fill="none" xmlns="http://www.w3.org/2000/svg">
<rect x="0.5" y="0.5" width="91" height="44" rx="9.5" fill="white" stroke="#087DBF"/>
<path d="M21.664 14.56H29.872L29.704 15.76H23.104V22.168H28.792V23.368H23.104V31H21.664V14.56ZM33.6229 31H32.2309V18.448H33.6229V31ZM32.9029 12.928C33.2229 12.928 33.4789 13.024 33.6709 13.216C33.8629 13.408 33.9589 13.648 33.9589 13.936C33.9589 14.224 33.8629 14.464 33.6709 14.656C33.4789 14.848 33.2229 14.944 32.9029 14.944C32.5989 14.944 32.3509 14.848 32.1589 14.656C31.9669 14.464 31.8709 14.224 31.8709 13.936C31.8709 13.648 31.9669 13.408 32.1589 13.216C32.3509 13.024 32.5989 12.928 32.9029 12.928ZM40.7174 31.264C40.0294 31.264 39.4854 31.064 39.0854 30.664C38.6854 30.264 38.4854 29.672 38.4854 28.888V13.336L39.8774 13.168V28.84C39.8774 29.656 40.2134 30.064 40.8854 30.064C41.2374 30.064 41.5334 30.008 41.7734 29.896L42.1334 30.928C41.6854 31.152 41.2134 31.264 40.7174 31.264ZM51.3263 30.472C50.5263 31 49.6463 31.264 48.6863 31.264C47.7263 31.264 46.9743 30.984 46.4303 30.424C45.8863 29.848 45.6143 29.024 45.6143 27.952V19.576H43.5023V18.448H45.6143V15.448L47.0063 15.28V18.448H50.2463L50.0783 19.576H47.0063V27.88C47.0063 28.616 47.1583 29.168 47.4623 29.536C47.7663 29.888 48.2303 30.064 48.8543 30.064C49.4943 30.064 50.1343 29.88 50.7743 29.512L51.3263 30.472ZM62.4871 24.256C62.4871 24.608 62.4711 24.944 62.4391 25.264H54.0631C54.1431 26.896 54.5271 28.112 55.2151 28.912C55.9191 29.696 56.8391 30.088 57.9751 30.088C58.6311 30.088 59.2071 29.992 59.7031 29.8C60.2151 29.592 60.7671 29.272 61.3591 28.84L62.0071 29.728C61.3831 30.24 60.7431 30.624 60.0871 30.88C59.4311 31.136 58.7031 31.264 57.9031 31.264C56.2391 31.264 54.9351 30.696 53.9911 29.56C53.0471 28.424 52.5751 26.848 52.5751 24.832C52.5751 23.504 52.7751 22.344 53.1751 21.352C53.5911 20.344 54.1751 19.568 54.9271 19.024C55.6951 18.464 56.5831 18.184 57.5911 18.184C59.1911 18.184 60.4071 18.728 61.2391 19.816C62.0711 20.888 62.4871 22.368 62.4871 24.256ZM61.1191 23.824C61.1191 22.416 60.8231 21.32 60.2311 20.536C59.6551 19.736 58.7911 19.336 57.6391 19.336C56.5991 19.336 55.7591 19.736 55.1191 20.536C54.4791 21.336 54.1271 22.552 54.0631 24.184H61.1191V23.824ZM71.2508 18.184C71.7628 18.184 72.1788 18.232 72.4988 18.328L72.2348 19.648C71.8988 19.552 71.5308 19.504 71.1308 19.504C70.2828 19.504 69.6028 19.816 69.0908 20.44C68.5788 21.048 68.1468 22.008 67.7948 23.32V31H66.4028V18.448H67.6028L67.7228 21.256C68.3628 19.208 69.5388 18.184 71.2508 18.184Z" fill="black"/>
</svg>
