<svg width="122" height="44" viewBox="0 0 122 44" fill="none" xmlns="http://www.w3.org/2000/svg">
<rect x="0.5" y="0.5" width="121" height="43" rx="21.5" fill="#087DBF" stroke="#087DBF"/>
<path d="M46.272 13.272V25.632C46.272 27.008 45.848 28.112 45 28.944C44.152 29.76 43.032 30.168 41.64 30.168C40.232 30.168 39.104 29.752 38.256 28.92C37.408 28.072 36.984 26.92 36.984 25.464H39.168C39.184 26.28 39.392 26.944 39.792 27.456C40.208 27.968 40.824 28.224 41.64 28.224C42.456 28.224 43.064 27.984 43.464 27.504C43.864 27.008 44.064 26.384 44.064 25.632V13.272H46.272ZM56.3106 30.216C55.0786 30.216 53.9586 29.936 52.9506 29.376C51.9586 28.816 51.1746 28.024 50.5986 27C50.0386 25.96 49.7586 24.76 49.7586 23.4C49.7586 22.056 50.0466 20.872 50.6226 19.848C51.2146 18.808 52.0146 18.016 53.0226 17.472C54.0306 16.912 55.1586 16.632 56.4066 16.632C57.6546 16.632 58.7826 16.912 59.7906 17.472C60.7986 18.016 61.5906 18.8 62.1666 19.824C62.7586 20.848 63.0546 22.04 63.0546 23.4C63.0546 24.76 62.7506 25.96 62.1426 27C61.5506 28.024 60.7426 28.816 59.7186 29.376C58.6946 29.936 57.5586 30.216 56.3106 30.216ZM56.3106 28.296C57.0946 28.296 57.8306 28.112 58.5186 27.744C59.2066 27.376 59.7586 26.824 60.1746 26.088C60.6066 25.352 60.8226 24.456 60.8226 23.4C60.8226 22.344 60.6146 21.448 60.1986 20.712C59.7826 19.976 59.2386 19.432 58.5666 19.08C57.8946 18.712 57.1666 18.528 56.3826 18.528C55.5826 18.528 54.8466 18.712 54.1746 19.08C53.5186 19.432 52.9906 19.976 52.5906 20.712C52.1906 21.448 51.9906 22.344 51.9906 23.4C51.9906 24.472 52.1826 25.376 52.5666 26.112C52.9666 26.848 53.4946 27.4 54.1506 27.768C54.8066 28.12 55.5266 28.296 56.3106 28.296ZM67.0541 14.712C66.6381 14.712 66.2861 14.568 65.9981 14.28C65.7101 13.992 65.5661 13.64 65.5661 13.224C65.5661 12.808 65.7101 12.456 65.9981 12.168C66.2861 11.88 66.6381 11.736 67.0541 11.736C67.4541 11.736 67.7901 11.88 68.0621 12.168C68.3501 12.456 68.4941 12.808 68.4941 13.224C68.4941 13.64 68.3501 13.992 68.0621 14.28C67.7901 14.568 67.4541 14.712 67.0541 14.712ZM68.1101 16.848V30H65.9261V16.848H68.1101ZM78.2404 16.608C79.8404 16.608 81.1364 17.096 82.1284 18.072C83.1204 19.032 83.6164 20.424 83.6164 22.248V30H81.4564V22.56C81.4564 21.248 81.1284 20.248 80.4724 19.56C79.8164 18.856 78.9204 18.504 77.7844 18.504C76.6324 18.504 75.7124 18.864 75.0244 19.584C74.3524 20.304 74.0164 21.352 74.0164 22.728V30H71.8324V16.848H74.0164V18.72C74.4484 18.048 75.0324 17.528 75.7684 17.16C76.5204 16.792 77.3444 16.608 78.2404 16.608Z" fill="black"/>
</svg>
