<svg width="106" height="35" viewBox="0 0 106 35" fill="none" xmlns="http://www.w3.org/2000/svg">
<rect x="0.5" y="0.5" width="105" height="34" rx="9.5" fill="white" stroke="#087DBF"/>
<path d="M22.7614 25V10.4545H24.5227V17.6705H24.6932L31.2273 10.4545H33.5284L27.4205 17.017L33.5284 25H31.3977L26.3409 18.2386L24.5227 20.2841V25H22.7614ZM41.7724 20.5398V14.0909H43.4485V25H41.7724V23.1534H41.6587C41.4031 23.7074 41.0053 24.1785 40.4656 24.5668C39.9258 24.9503 39.244 25.142 38.4201 25.142C37.7383 25.142 37.1322 24.9929 36.6019 24.6946C36.0716 24.3916 35.6549 23.937 35.3519 23.331C35.0489 22.7202 34.8974 21.9508 34.8974 21.0227V14.0909H36.5735V20.9091C36.5735 21.7045 36.796 22.339 37.2411 22.8125C37.6909 23.286 38.2638 23.5227 38.9599 23.5227C39.3765 23.5227 39.8003 23.4162 40.2312 23.2031C40.6668 22.9901 41.0314 22.6634 41.3249 22.223C41.6232 21.7827 41.7724 21.2216 41.7724 20.5398ZM51.2628 14.0909V15.5114H45.6094V14.0909H51.2628ZM47.2571 11.4773H48.9332V21.875C48.9332 22.3485 49.0019 22.7036 49.1392 22.9403C49.2813 23.1723 49.4612 23.3286 49.679 23.4091C49.9015 23.4848 50.1359 23.5227 50.3821 23.5227C50.5668 23.5227 50.7183 23.5133 50.8366 23.4943C50.955 23.4706 51.0497 23.4517 51.1207 23.4375L51.4616 24.9432C51.348 24.9858 51.1894 25.0284 50.9858 25.071C50.7822 25.1184 50.5241 25.142 50.2116 25.142C49.7382 25.142 49.2741 25.0402 48.8196 24.8366C48.3698 24.633 47.9957 24.3229 47.6974 23.9062C47.4039 23.4896 47.2571 22.964 47.2571 22.3295V11.4773ZM56.9943 25.2557C56.303 25.2557 55.6757 25.1255 55.1122 24.8651C54.5488 24.5999 54.1013 24.2188 53.7699 23.7216C53.4384 23.2197 53.2727 22.6136 53.2727 21.9034C53.2727 21.2784 53.3958 20.7718 53.642 20.3835C53.8883 19.9905 54.2173 19.6828 54.6293 19.4602C55.0412 19.2377 55.4957 19.072 55.9929 18.9631C56.4948 18.8494 56.9991 18.7595 57.5057 18.6932C58.1686 18.608 58.706 18.544 59.1179 18.5014C59.5346 18.4541 59.8376 18.3759 60.027 18.267C60.2211 18.1581 60.3182 17.9687 60.3182 17.6989V17.642C60.3182 16.9413 60.1264 16.3968 59.7429 16.0085C59.3641 15.6203 58.7888 15.4261 58.017 15.4261C57.2169 15.4261 56.5895 15.6013 56.1349 15.9517C55.6804 16.3021 55.3608 16.6761 55.1761 17.0739L53.5852 16.5057C53.8693 15.8428 54.2481 15.3267 54.7216 14.9574C55.1998 14.5833 55.7206 14.3229 56.2841 14.1761C56.8523 14.0246 57.411 13.9489 57.9602 13.9489C58.3106 13.9489 58.7131 13.9915 59.1676 14.0767C59.6269 14.1572 60.0696 14.3253 60.4957 14.581C60.9266 14.8366 61.2841 15.2225 61.5682 15.7386C61.8523 16.2547 61.9943 16.946 61.9943 17.8125V25H60.3182V23.5227H60.233C60.1193 23.7595 59.9299 24.0128 59.6648 24.2827C59.3996 24.5526 59.0469 24.7822 58.6065 24.9716C58.1662 25.161 57.6288 25.2557 56.9943 25.2557ZM57.25 23.75C57.9129 23.75 58.4716 23.6198 58.9261 23.3594C59.3854 23.099 59.7311 22.7628 59.9631 22.3509C60.1998 21.9389 60.3182 21.5057 60.3182 21.0511V19.517C60.2472 19.6023 60.0909 19.6804 59.8494 19.7514C59.6127 19.8177 59.3381 19.8769 59.0256 19.929C58.7178 19.9763 58.4171 20.0189 58.1236 20.0568C57.8348 20.09 57.6004 20.1184 57.4205 20.142C56.9848 20.1989 56.5777 20.2912 56.1989 20.419C55.8248 20.5421 55.5218 20.7292 55.2898 20.9801C55.0625 21.2263 54.9489 21.5625 54.9489 21.9886C54.9489 22.571 55.1643 23.0114 55.5952 23.3097C56.0308 23.6032 56.5824 23.75 57.25 23.75ZM65.0536 25V14.0909H66.7298V25H65.0536ZM65.9059 12.2727C65.5792 12.2727 65.2975 12.1615 65.0607 11.9389C64.8287 11.7164 64.7127 11.4489 64.7127 11.1364C64.7127 10.8239 64.8287 10.5563 65.0607 10.3338C65.2975 10.1113 65.5792 10 65.9059 10C66.2326 10 66.512 10.1113 66.744 10.3338C66.9807 10.5563 67.0991 10.8239 67.0991 11.1364C67.0991 11.4489 66.9807 11.7164 66.744 11.9389C66.512 12.1615 66.2326 12.2727 65.9059 12.2727ZM77.527 16.5341L76.0213 16.9602C75.9266 16.7093 75.7869 16.4654 75.6023 16.2287C75.4223 15.9872 75.1761 15.7884 74.8636 15.6321C74.5511 15.4759 74.151 15.3977 73.6634 15.3977C72.9957 15.3977 72.4394 15.5516 71.9943 15.8594C71.554 16.1624 71.3338 16.5483 71.3338 17.017C71.3338 17.4337 71.4853 17.7628 71.7884 18.0043C72.0914 18.2457 72.5649 18.447 73.2088 18.608L74.8281 19.0057C75.8035 19.2424 76.5303 19.6046 77.0085 20.0923C77.4867 20.5753 77.7259 21.1979 77.7259 21.9602C77.7259 22.5852 77.5459 23.1439 77.1861 23.6364C76.831 24.1288 76.3338 24.517 75.6946 24.8011C75.0554 25.0852 74.312 25.2273 73.4645 25.2273C72.3518 25.2273 71.4309 24.9858 70.7017 24.5028C69.9725 24.0199 69.5109 23.3144 69.3168 22.3864L70.9077 21.9886C71.0592 22.5758 71.3456 23.0161 71.767 23.3097C72.1932 23.6032 72.7495 23.75 73.4361 23.75C74.2173 23.75 74.8376 23.5843 75.2969 23.2528C75.7609 22.9167 75.9929 22.5142 75.9929 22.0455C75.9929 21.6667 75.8603 21.3494 75.5952 21.0938C75.33 20.8333 74.9228 20.6392 74.3736 20.5114L72.5554 20.0852C71.5563 19.8485 70.8224 19.4815 70.3537 18.9844C69.8897 18.4825 69.6577 17.8551 69.6577 17.1023C69.6577 16.4867 69.8305 15.9422 70.1761 15.4688C70.5265 14.9953 71.0024 14.6236 71.6037 14.3537C72.2098 14.0838 72.8963 13.9489 73.6634 13.9489C74.7429 13.9489 75.5904 14.1856 76.206 14.6591C76.8262 15.1326 77.2666 15.7576 77.527 16.5341ZM80.2489 25V14.0909H81.9251V25H80.2489ZM81.1012 12.2727C80.7745 12.2727 80.4928 12.1615 80.256 11.9389C80.024 11.7164 79.908 11.4489 79.908 11.1364C79.908 10.8239 80.024 10.5563 80.256 10.3338C80.4928 10.1113 80.7745 10 81.1012 10C81.4279 10 81.7073 10.1113 81.9393 10.3338C82.176 10.5563 82.2944 10.8239 82.2944 11.1364C82.2944 11.4489 82.176 11.7164 81.9393 11.9389C81.7073 12.1615 81.4279 12.2727 81.1012 12.2727Z" fill="black"/>
</svg>
