<svg width="120" height="42" viewBox="0 0 120 42" fill="none" xmlns="http://www.w3.org/2000/svg">
<rect width="120" height="42" rx="21" fill="#F4F4F4"/>
<path d="M29.032 27.224H34.888V29H26.848V12.272H29.032V27.224ZM42.9434 29.216C41.7114 29.216 40.5914 28.936 39.5834 28.376C38.5914 27.816 37.8074 27.024 37.2314 26C36.6714 24.96 36.3914 23.76 36.3914 22.4C36.3914 21.056 36.6794 19.872 37.2554 18.848C37.8474 17.808 38.6474 17.016 39.6554 16.472C40.6634 15.912 41.7914 15.632 43.0394 15.632C44.2874 15.632 45.4154 15.912 46.4234 16.472C47.4314 17.016 48.2234 17.8 48.7994 18.824C49.3914 19.848 49.6874 21.04 49.6874 22.4C49.6874 23.76 49.3834 24.96 48.7754 26C48.1834 27.024 47.3754 27.816 46.3514 28.376C45.3274 28.936 44.1914 29.216 42.9434 29.216ZM42.9434 27.296C43.7274 27.296 44.4634 27.112 45.1514 26.744C45.8394 26.376 46.3914 25.824 46.8074 25.088C47.2394 24.352 47.4554 23.456 47.4554 22.4C47.4554 21.344 47.2474 20.448 46.8314 19.712C46.4154 18.976 45.8714 18.432 45.1994 18.08C44.5274 17.712 43.7994 17.528 43.0154 17.528C42.2154 17.528 41.4794 17.712 40.8074 18.08C40.1514 18.432 39.6234 18.976 39.2234 19.712C38.8234 20.448 38.6234 21.344 38.6234 22.4C38.6234 23.472 38.8154 24.376 39.1994 25.112C39.5994 25.848 40.1274 26.4 40.7834 26.768C41.4394 27.12 42.1594 27.296 42.9434 27.296ZM57.9829 15.632C59.1189 15.632 60.1109 15.88 60.9589 16.376C61.8229 16.872 62.4629 17.496 62.8789 18.248V15.848H65.0869V29.288C65.0869 30.488 64.8309 31.552 64.3189 32.48C63.8069 33.424 63.0709 34.16 62.1109 34.688C61.1669 35.216 60.0629 35.48 58.7989 35.48C57.0709 35.48 55.6309 35.072 54.4789 34.256C53.3269 33.44 52.6469 32.328 52.4389 30.92H54.5989C54.8389 31.72 55.3349 32.36 56.0869 32.84C56.8389 33.336 57.7429 33.584 58.7989 33.584C59.9989 33.584 60.9749 33.208 61.7269 32.456C62.4949 31.704 62.8789 30.648 62.8789 29.288V26.528C62.4469 27.296 61.8069 27.936 60.9589 28.448C60.1109 28.96 59.1189 29.216 57.9829 29.216C56.8149 29.216 55.7509 28.928 54.7909 28.352C53.8469 27.776 53.1029 26.968 52.5589 25.928C52.0149 24.888 51.7429 23.704 51.7429 22.376C51.7429 21.032 52.0149 19.856 52.5589 18.848C53.1029 17.824 53.8469 17.032 54.7909 16.472C55.7509 15.912 56.8149 15.632 57.9829 15.632ZM62.8789 22.4C62.8789 21.408 62.6789 20.544 62.2789 19.808C61.8789 19.072 61.3349 18.512 60.6469 18.128C59.9749 17.728 59.2309 17.528 58.4149 17.528C57.5989 17.528 56.8549 17.72 56.1829 18.104C55.5109 18.488 54.9749 19.048 54.5749 19.784C54.1749 20.52 53.9749 21.384 53.9749 22.376C53.9749 23.384 54.1749 24.264 54.5749 25.016C54.9749 25.752 55.5109 26.32 56.1829 26.72C56.8549 27.104 57.5989 27.296 58.4149 27.296C59.2309 27.296 59.9749 27.104 60.6469 26.72C61.3349 26.32 61.8789 25.752 62.2789 25.016C62.6789 24.264 62.8789 23.392 62.8789 22.4ZM76.3041 13.712C75.8881 13.712 75.5361 13.568 75.2481 13.28C74.9601 12.992 74.8161 12.64 74.8161 12.224C74.8161 11.808 74.9601 11.456 75.2481 11.168C75.5361 10.88 75.8881 10.736 76.3041 10.736C76.7041 10.736 77.0401 10.88 77.3121 11.168C77.6001 11.456 77.7441 11.808 77.7441 12.224C77.7441 12.64 77.6001 12.992 77.3121 13.28C77.0401 13.568 76.7041 13.712 76.3041 13.712ZM77.3601 15.848V29H75.1761V15.848H77.3601ZM87.4904 15.608C89.0904 15.608 90.3864 16.096 91.3784 17.072C92.3704 18.032 92.8664 19.424 92.8664 21.248V29H90.7064V21.56C90.7064 20.248 90.3784 19.248 89.7224 18.56C89.0664 17.856 88.1704 17.504 87.0344 17.504C85.8824 17.504 84.9624 17.864 84.2744 18.584C83.6024 19.304 83.2664 20.352 83.2664 21.728V29H81.0824V15.848H83.2664V17.72C83.6984 17.048 84.2824 16.528 85.0184 16.16C85.7704 15.792 86.5944 15.608 87.4904 15.608Z" fill="black"/>
</svg>
