<svg width="106" height="35" viewBox="0 0 106 35" fill="none" xmlns="http://www.w3.org/2000/svg">
<rect x="0.5" y="0.5" width="105" height="34" rx="9.5" fill="white" stroke="#087DBF"/>
<path d="M20.7614 25V10.4545H25.6761C26.8125 10.4545 27.7453 10.6487 28.4744 11.0369C29.2036 11.4205 29.7434 11.9484 30.0938 12.6207C30.4441 13.2931 30.6193 14.0578 30.6193 14.9148C30.6193 15.7718 30.4441 16.5317 30.0938 17.1946C29.7434 17.8575 29.206 18.3783 28.4815 18.7571C27.7571 19.1312 26.8314 19.3182 25.7045 19.3182H21.7273V17.7273H25.6477C26.4242 17.7273 27.0492 17.6136 27.5227 17.3864C28.0009 17.1591 28.3466 16.8371 28.5597 16.4205C28.7775 15.9991 28.8864 15.4972 28.8864 14.9148C28.8864 14.3324 28.7775 13.8234 28.5597 13.3878C28.3419 12.9522 27.9938 12.616 27.5156 12.3793C27.0374 12.1378 26.4053 12.017 25.6193 12.017H22.5227V25H20.7614ZM27.608 18.4659L31.1875 25H29.142L25.6193 18.4659H27.608ZM40.2021 20.5398V14.0909H41.8782V25H40.2021V23.1534H40.0884C39.8327 23.7074 39.435 24.1785 38.8952 24.5668C38.3555 24.9503 37.6737 25.142 36.8498 25.142C36.168 25.142 35.5619 24.9929 35.0316 24.6946C34.5013 24.3916 34.0846 23.937 33.7816 23.331C33.4786 22.7202 33.3271 21.9508 33.3271 21.0227V14.0909H35.0032V20.9091C35.0032 21.7045 35.2257 22.339 35.6708 22.8125C36.1206 23.286 36.6935 23.5227 37.3896 23.5227C37.8062 23.5227 38.23 23.4162 38.6609 23.2031C39.0965 22.9901 39.4611 22.6634 39.7546 22.223C40.0529 21.7827 40.2021 21.2216 40.2021 20.5398ZM52.6754 16.5341L51.1697 16.9602C51.075 16.7093 50.9354 16.4654 50.7507 16.2287C50.5708 15.9872 50.3246 15.7884 50.0121 15.6321C49.6996 15.4759 49.2995 15.3977 48.8118 15.3977C48.1442 15.3977 47.5878 15.5516 47.1428 15.8594C46.7024 16.1624 46.4822 16.5483 46.4822 17.017C46.4822 17.4337 46.6338 17.7628 46.9368 18.0043C47.2398 18.2457 47.7133 18.447 48.3572 18.608L49.9766 19.0057C50.9519 19.2424 51.6787 19.6046 52.157 20.0923C52.6352 20.5753 52.8743 21.1979 52.8743 21.9602C52.8743 22.5852 52.6944 23.1439 52.3345 23.6364C51.9794 24.1288 51.4822 24.517 50.843 24.8011C50.2038 25.0852 49.4605 25.2273 48.6129 25.2273C47.5002 25.2273 46.5793 24.9858 45.8501 24.5028C45.121 24.0199 44.6593 23.3144 44.4652 22.3864L46.0561 21.9886C46.2076 22.5758 46.4941 23.0161 46.9155 23.3097C47.3416 23.6032 47.898 23.75 48.5845 23.75C49.3658 23.75 49.986 23.5843 50.4453 23.2528C50.9093 22.9167 51.1413 22.5142 51.1413 22.0455C51.1413 21.6667 51.0088 21.3494 50.7436 21.0938C50.4785 20.8333 50.0713 20.6392 49.522 20.5114L47.7038 20.0852C46.7048 19.8485 45.9709 19.4815 45.5021 18.9844C45.0381 18.4825 44.8061 17.8551 44.8061 17.1023C44.8061 16.4867 44.9789 15.9422 45.3246 15.4688C45.675 14.9953 46.1508 14.6236 46.7521 14.3537C47.3582 14.0838 48.0447 13.9489 48.8118 13.9489C49.8913 13.9489 50.7389 14.1856 51.3544 14.6591C51.9747 15.1326 52.415 15.7576 52.6754 16.5341ZM60.1417 14.0909V15.5114H54.4883V14.0909H60.1417ZM56.136 11.4773H57.8121V21.875C57.8121 22.3485 57.8808 22.7036 58.0181 22.9403C58.1602 23.1723 58.3401 23.3286 58.5579 23.4091C58.7804 23.4848 59.0148 23.5227 59.261 23.5227C59.4457 23.5227 59.5972 23.5133 59.7156 23.4943C59.8339 23.4706 59.9286 23.4517 59.9996 23.4375L60.3406 24.9432C60.2269 24.9858 60.0683 25.0284 59.8647 25.071C59.6611 25.1184 59.4031 25.142 59.0906 25.142C58.6171 25.142 58.1531 25.0402 57.6985 24.8366C57.2487 24.633 56.8746 24.3229 56.5763 23.9062C56.2828 23.4896 56.136 22.964 56.136 22.3295V11.4773ZM65.8732 25.2557C65.1819 25.2557 64.5546 25.1255 63.9911 24.8651C63.4277 24.5999 62.9802 24.2188 62.6488 23.7216C62.3174 23.2197 62.1516 22.6136 62.1516 21.9034C62.1516 21.2784 62.2747 20.7718 62.521 20.3835C62.7672 19.9905 63.0962 19.6828 63.5082 19.4602C63.9201 19.2377 64.3746 19.072 64.8718 18.9631C65.3737 18.8494 65.878 18.7595 66.3846 18.6932C67.0475 18.608 67.5849 18.544 67.9968 18.5014C68.4135 18.4541 68.7165 18.3759 68.9059 18.267C69.1 18.1581 69.1971 17.9687 69.1971 17.6989V17.642C69.1971 16.9413 69.0053 16.3968 68.6218 16.0085C68.243 15.6203 67.6677 15.4261 66.896 15.4261C66.0958 15.4261 65.4684 15.6013 65.0138 15.9517C64.5593 16.3021 64.2397 16.6761 64.055 17.0739L62.4641 16.5057C62.7482 15.8428 63.127 15.3267 63.6005 14.9574C64.0787 14.5833 64.5996 14.3229 65.163 14.1761C65.7312 14.0246 66.2899 13.9489 66.8391 13.9489C67.1895 13.9489 67.592 13.9915 68.0465 14.0767C68.5058 14.1572 68.9485 14.3253 69.3746 14.581C69.8055 14.8366 70.163 15.2225 70.4471 15.7386C70.7312 16.2547 70.8732 16.946 70.8732 17.8125V25H69.1971V23.5227H69.1119C68.9982 23.7595 68.8088 24.0128 68.5437 24.2827C68.2785 24.5526 67.9258 24.7822 67.4854 24.9716C67.0451 25.161 66.5077 25.2557 65.8732 25.2557ZM66.1289 23.75C66.7918 23.75 67.3505 23.6198 67.805 23.3594C68.2643 23.099 68.61 22.7628 68.842 22.3509C69.0787 21.9389 69.1971 21.5057 69.1971 21.0511V19.517C69.1261 19.6023 68.9698 19.6804 68.7283 19.7514C68.4916 19.8177 68.217 19.8769 67.9045 19.929C67.5967 19.9763 67.296 20.0189 67.0025 20.0568C66.7137 20.09 66.4793 20.1184 66.2994 20.142C65.8638 20.1989 65.4566 20.2912 65.0778 20.419C64.7037 20.5421 64.4007 20.7292 64.1687 20.9801C63.9414 21.2263 63.8278 21.5625 63.8278 21.9886C63.8278 22.571 64.0432 23.0114 64.4741 23.3097C64.9097 23.6032 65.4613 23.75 66.1289 23.75ZM82.4624 14.0909L78.4283 25H76.7237L72.6896 14.0909H74.5078L77.5192 22.7841H77.6328L80.6442 14.0909H82.4624ZM84.6747 25V14.0909H86.3509V25H84.6747ZM85.527 12.2727C85.2003 12.2727 84.9186 12.1615 84.6818 11.9389C84.4498 11.7164 84.3338 11.4489 84.3338 11.1364C84.3338 10.8239 84.4498 10.5563 84.6818 10.3338C84.9186 10.1113 85.2003 10 85.527 10C85.8537 10 86.133 10.1113 86.3651 10.3338C86.6018 10.5563 86.7202 10.8239 86.7202 11.1364C86.7202 11.4489 86.6018 11.7164 86.3651 11.9389C86.133 12.1615 85.8537 12.2727 85.527 12.2727Z" fill="black"/>
</svg>
