<svg width="106" height="35" viewBox="0 0 106 35" fill="none" xmlns="http://www.w3.org/2000/svg">
<rect x="0.5" y="0.5" width="105" height="34" rx="9.5" fill="#087DBF" stroke="#087DBF"/>
<path d="M25.9659 12.017V10.4545H36.875V12.017H32.3011V25H30.5398V12.017H25.9659ZM39.5934 25V10.4545H41.2695V15.8239H41.4116C41.5347 15.6345 41.7051 15.393 41.9229 15.0994C42.1455 14.8011 42.4627 14.536 42.8746 14.304C43.2913 14.0672 43.8548 13.9489 44.565 13.9489C45.4835 13.9489 46.2932 14.1785 46.994 14.6378C47.6947 15.0971 48.2416 15.7481 48.6346 16.5909C49.0276 17.4337 49.2241 18.428 49.2241 19.5739C49.2241 20.7292 49.0276 21.7306 48.6346 22.5781C48.2416 23.4209 47.6971 24.0743 47.0011 24.5384C46.305 24.9976 45.5025 25.2273 44.5934 25.2273C43.8926 25.2273 43.3316 25.1113 42.9102 24.8793C42.4888 24.6425 42.1644 24.375 41.9371 24.0767C41.7099 23.7737 41.5347 23.5227 41.4116 23.3239H41.2127V25H39.5934ZM41.2411 19.5455C41.2411 20.3693 41.3619 21.0961 41.6033 21.7259C41.8448 22.3509 42.1976 22.8409 42.6616 23.196C43.1256 23.5464 43.6938 23.7216 44.3661 23.7216C45.0669 23.7216 45.6516 23.5369 46.1204 23.1676C46.5939 22.7936 46.949 22.2917 47.1857 21.6619C47.4272 21.0275 47.5479 20.322 47.5479 19.5455C47.5479 18.7784 47.4296 18.0871 47.1928 17.4716C46.9608 16.8513 46.6081 16.3613 46.1346 16.0014C45.6658 15.6368 45.0763 15.4545 44.3661 15.4545C43.6843 15.4545 43.1114 15.6274 42.6474 15.973C42.1834 16.3139 41.833 16.7921 41.5962 17.4077C41.3595 18.0185 41.2411 18.7311 41.2411 19.5455ZM51.788 25V14.0909H53.4641V25H51.788ZM52.6403 12.2727C52.3136 12.2727 52.0318 12.1615 51.7951 11.9389C51.5631 11.7164 51.4471 11.4489 51.4471 11.1364C51.4471 10.8239 51.5631 10.5563 51.7951 10.3338C52.0318 10.1113 52.3136 10 52.6403 10C52.967 10 53.2463 10.1113 53.4783 10.3338C53.7151 10.5563 53.8335 10.8239 53.8335 11.1364C53.8335 11.4489 53.7151 11.7164 53.4783 11.9389C53.2463 12.1615 52.967 12.2727 52.6403 12.2727ZM58.2102 10.4545V25H56.5341V10.4545H58.2102ZM61.2802 25V14.0909H62.9563V25H61.2802ZM62.1325 12.2727C61.8058 12.2727 61.524 12.1615 61.2873 11.9389C61.0553 11.7164 60.9393 11.4489 60.9393 11.1364C60.9393 10.8239 61.0553 10.5563 61.2873 10.3338C61.524 10.1113 61.8058 10 62.1325 10C62.4592 10 62.7385 10.1113 62.9705 10.3338C63.2073 10.5563 63.3256 10.8239 63.3256 11.1364C63.3256 11.4489 63.2073 11.7164 62.9705 11.9389C62.7385 12.1615 62.4592 12.2727 62.1325 12.2727ZM73.7536 16.5341L72.2479 16.9602C72.1532 16.7093 72.0135 16.4654 71.8288 16.2287C71.6489 15.9872 71.4027 15.7884 71.0902 15.6321C70.7777 15.4759 70.3776 15.3977 69.8899 15.3977C69.2223 15.3977 68.666 15.5516 68.2209 15.8594C67.7805 16.1624 67.5604 16.5483 67.5604 17.017C67.5604 17.4337 67.7119 17.7628 68.0149 18.0043C68.3179 18.2457 68.7914 18.447 69.4354 18.608L71.0547 19.0057C72.0301 19.2424 72.7569 19.6046 73.2351 20.0923C73.7133 20.5753 73.9524 21.1979 73.9524 21.9602C73.9524 22.5852 73.7725 23.1439 73.4126 23.6364C73.0575 24.1288 72.5604 24.517 71.9212 24.8011C71.282 25.0852 70.5386 25.2273 69.6911 25.2273C68.5784 25.2273 67.6574 24.9858 66.9283 24.5028C66.1991 24.0199 65.7375 23.3144 65.5433 22.3864L67.1342 21.9886C67.2857 22.5758 67.5722 23.0161 67.9936 23.3097C68.4197 23.6032 68.9761 23.75 69.6626 23.75C70.4439 23.75 71.0642 23.5843 71.5234 23.2528C71.9875 22.9167 72.2195 22.5142 72.2195 22.0455C72.2195 21.6667 72.0869 21.3494 71.8217 21.0938C71.5566 20.8333 71.1494 20.6392 70.6001 20.5114L68.782 20.0852C67.7829 19.8485 67.049 19.4815 66.5803 18.9844C66.1162 18.4825 65.8842 17.8551 65.8842 17.1023C65.8842 16.4867 66.0571 15.9422 66.4027 15.4688C66.7531 14.9953 67.2289 14.6236 67.8303 14.3537C68.4363 14.0838 69.1229 13.9489 69.8899 13.9489C70.9695 13.9489 71.817 14.1856 72.4325 14.6591C73.0528 15.1326 73.4931 15.7576 73.7536 16.5341ZM76.4755 25V14.0909H78.1516V25H76.4755ZM77.3278 12.2727C77.0011 12.2727 76.7193 12.1615 76.4826 11.9389C76.2506 11.7164 76.1346 11.4489 76.1346 11.1364C76.1346 10.8239 76.2506 10.5563 76.4826 10.3338C76.7193 10.1113 77.0011 10 77.3278 10C77.6545 10 77.9338 10.1113 78.1658 10.3338C78.4026 10.5563 78.521 10.8239 78.521 11.1364C78.521 11.4489 78.4026 11.7164 78.1658 11.9389C77.9338 12.1615 77.6545 12.2727 77.3278 12.2727Z" fill="white"/>
</svg>
